<?xml version="1.0" encoding="UTF-8" standalone="no"?>
<!-- Created with Inkscape (http://www.inkscape.org/) -->

<svg
   width="264.58334mm"
   height="105.37246mm"
   viewBox="0 0 264.58334 105.37246"
   version="1.1"
   id="svg1"
   xmlns:inkscape="http://www.inkscape.org/namespaces/inkscape"
   xmlns:sodipodi="http://sodipodi.sourceforge.net/DTD/sodipodi-0.dtd"
   xmlns="http://www.w3.org/2000/svg"
   xmlns:svg="http://www.w3.org/2000/svg">
  <sodipodi:namedview
     id="namedview1"
     pagecolor="#ffffff"
     bordercolor="#000000"
     borderopacity="0.25"
     inkscape:showpageshadow="2"
     inkscape:pageopacity="0.0"
     inkscape:pagecheckerboard="0"
     inkscape:deskcolor="#d1d1d1"
     inkscape:document-units="mm" />
  <defs
     id="defs1" />
  <g
     inkscape:label="Layer 1"
     inkscape:groupmode="layer"
     id="layer1"
     transform="translate(-148.43125,-69.320833)">
    <path
       inkscape:connector-curvature="0"
       id="path19107"
       style="fill:#ffffff;fill-opacity:1;fill-rule:nonzero;stroke:none;stroke-width:5.13186"
       d="M 409.61204,144.70786 V 72.723275 H 178.40636 c -14.65144,0 -26.57271,11.916176 -26.57271,26.567639 v 71.994846 h 231.20044 c 14.67719,0 26.57795,-11.90079 26.57795,-26.5779" />
    <path
       inkscape:connector-curvature="0"
       id="path19111"
       style="fill:#e9212f;fill-opacity:1;fill-rule:nonzero;stroke:none;stroke-width:5.13186"
       d="m 155.24128,167.88331 h 227.79804 c 12.77329,0 23.16523,-10.39201 23.16523,-23.17034 V 76.130808 H 178.4116 c -12.77838,0 -23.17032,10.386879 -23.17032,23.160077 z m 227.79804,6.80998 H 148.43125 V 99.290885 c 0,-16.524579 13.4455,-29.970052 29.98035,-29.970052 h 234.60298 v 75.392137 c 0,16.52972 -13.4455,29.98032 -29.97526,29.98032" />
    <path
       inkscape:connector-curvature="0"
       id="path19115"
       style="fill:#025ea7;fill-opacity:1;fill-rule:nonzero;stroke:none;stroke-width:5.13186"
       d="m 211.63521,86.46123 c -3.07917,0 -4.92664,2.442762 -4.92664,5.829798 v 2.26315 21.820662 2.27341 c 0,3.38703 1.84747,5.82466 4.92664,5.82466 3.08425,0 4.93172,-2.43763 4.93172,-5.82466 v -2.27341 -21.820662 -2.26315 c 0,-3.387036 -1.84747,-5.829798 -4.93172,-5.829798" />
    <path
       inkscape:connector-curvature="0"
       id="path19119"
       style="fill:#025ea7;fill-opacity:1;fill-rule:nonzero;stroke:none;stroke-width:5.13186"
       d="m 234.81585,96.950782 h -2.29391 v -1.519027 c 0,-1.59601 0.91937,-2.247759 3.49986,-1.98603 2.58646,0.266792 3.17154,-1.421532 3.17154,-2.801999 0,-1.062368 -0.25603,-1.652452 -1.11285,-2.514609 -1.71407,-1.729435 -6.06595,-1.667858 -6.06595,-1.667858 0,0 -3.92071,-0.189838 -6.60463,1.934708 -2.67883,2.124589 -2.48899,5.870849 -2.48899,5.870849 v 2.683966 h -0.40587 c -1.79102,0 -3.70003,1.067459 -3.70003,3.325448 0,2.25801 2.17595,3.32031 3.91562,3.32031 h 0.18911 v 15.73941 c 0,2.7045 1.6473,5.13699 4.95733,5.13699 3.31526,0 4.64442,-2.38119 4.64442,-5.01895 v -15.85745 h 2.29392 c 1.30341,0 3.86426,-0.62611 3.86426,-3.21255 0,-2.586456 -2.00137,-3.433208 -3.86426,-3.433208" />
    <path
       inkscape:connector-curvature="0"
       id="path19123"
       style="fill:#025ea7;fill-opacity:1;fill-rule:nonzero;stroke:none;stroke-width:5.13186"
       d="m 248.31765,110.53479 c 0,-6.23521 3.02272,-7.32317 5.05494,-7.32317 0.0873,0 0.18475,0.005 0.27203,0.005 2.29392,0.11346 4.17222,1.7243 4.17222,7.58488 0,5.77334 -1.97068,6.91775 -4.04901,7.02038 -0.11637,0.0103 -0.22548,0.0103 -0.34913,0.0103 -2.31952,0 -5.10105,-1.06237 -5.10105,-7.2975 m 14.43077,-14.502637 c -1.61137,0 -2.87899,0.672217 -3.73087,1.791012 -1.56525,-1.05713 -3.55121,-1.791012 -5.92208,-1.791012 -10.08413,0 -14.50263,7.625947 -14.50263,14.877267 0,7.86713 5.35242,13.91246 14.51281,13.91246 2.15034,0 4.18256,-0.74917 5.86055,-1.86286 0.85246,1.16492 2.14001,1.86286 3.78222,1.86286 3.08426,0 4.93173,-2.44277 4.93173,-5.82465 v -17.14041 c 0,-3.38704 -1.84747,-5.824667 -4.93173,-5.824667" />
    <path
       inkscape:connector-curvature="0"
       id="path19127"
       style="fill:#025ea7;fill-opacity:1;fill-rule:nonzero;stroke:none;stroke-width:5.13186"
       d="m 182.85571,109.08249 3.69494,-12.013688 3.70003,12.013688 z m 20.06555,7.9082 c -0.53387,-1.54983 -8.87294,-25.284684 -9.30411,-26.398286 -0.43641,-1.108482 -0.84664,-1.934722 -1.82173,-2.66344 -1.66781,-1.236786 -5.24477,-1.180343 -5.24477,-1.180343 0,0 -3.56664,-0.05673 -5.23445,1.180343 -0.98483,0.72866 -1.39069,1.554958 -1.82696,2.66344 -0.43059,1.113573 -8.77038,24.848456 -9.30411,26.398286 -0.53388,1.54469 -0.89319,3.35622 0,4.8342 0.89755,1.47284 2.47866,2.64805 4.54172,2.64805 2.06814,0 3.94122,-0.88271 4.71613,-3.42296 0.77536,-2.54027 1.1594,-3.79244 1.1594,-3.79244 h 5.94783 5.95293 c 0,0 0.38986,1.2522 1.15503,3.79244 0.77972,2.54027 2.65308,3.42296 4.72123,3.42296 2.06305,0 3.64882,-1.17525 4.54172,-2.64805 0.89318,-1.47798 0.53387,-3.28951 0,-4.8342" />
    <path
       inkscape:connector-curvature="0"
       id="path19131"
       style="fill:#fdd208;fill-opacity:1;fill-rule:nonzero;stroke:none;stroke-width:5.13186"
       d="M 378.83117,153.06249 H 169.64121 v 4.49039 h 209.18996 c 6.44054,0 11.77754,-4.70079 12.79888,-10.84876 -2.94053,3.85916 -7.58495,6.35837 -12.79888,6.35837" />
    <path
       inkscape:connector-curvature="0"
       id="path19135"
       style="fill:#e9212f;fill-opacity:1;fill-rule:nonzero;stroke:none;stroke-width:5.13186"
       d="m 391.80447,136.98439 v -3.58717 H 182.61452 c -7.16411,0 -12.97854,5.80927 -12.97854,12.97847 v 3.58717 h 209.19519 c 7.1641,0 12.9733,-5.81439 12.9733,-12.97847" />
    <path
       inkscape:connector-curvature="0"
       id="path19139"
       style="fill:#e9212f;fill-opacity:1;fill-rule:nonzero;stroke:none;stroke-width:5.13186"
       d="m 310.39262,95.734522 c -5.29089,0 -10.46904,7.112758 -12.28567,9.883958 0.10183,-0.69796 0.25602,-1.60114 0.51787,-2.70962 0.42623,-1.83207 0.68807,-4.346678 -0.51787,-5.87084 -0.68808,-0.862201 -1.7551,-1.303557 -3.18681,-1.303557 -4.90103,0 -9.73006,6.276257 -11.8033,9.334857 0.25167,-0.92883 0.54406,-2.00656 0.72299,-2.73015 0.34913,-1.42154 0.94992,-3.812977 -0.0582,-5.172918 -0.58042,-0.79543 -1.58577,-1.195764 -3.00206,-1.195764 -2.28883,0 -4.86001,1.05204 -4.96766,1.098154 l -0.56442,0.215586 0.50769,0.287303 c 0.005,0.01027 0.70262,0.651706 0.15856,4.433929 -0.92373,6.53287 -3.08935,14.35895 -3.97715,17.41753 -0.47278,1.6422 -0.36949,2.93029 0.3084,3.8335 0.64588,0.85696 1.83205,1.33425 3.33053,1.33425 2.16052,0 4.07985,-0.7595 4.15681,-0.79034 l 0.33894,-0.13383 -0.21093,-0.30273 c -0.0103,-0.0103 -1.0983,-1.66272 0.31276,-4.79316 4.8958,-10.9052 8.83702,-15.24676 9.94041,-16.00113 0.22547,-0.15391 0.44077,-0.2361 0.59497,-0.2361 0.11637,0 0.16874,0.0407 0.20075,0.0771 0.10183,0.10765 0.13092,0.32323 0.10183,0.60035 -0.42041,3.75652 -1.99629,10.16622 -3.03815,14.41026 -0.22547,0.90323 -0.4204,1.69864 -0.57024,2.335 -0.39568,1.65245 -0.26184,2.89949 0.37968,3.7206 0.58479,0.73899 1.58577,1.11357 2.97646,1.11357 2.19645,0 4.13629,-0.7851 4.22358,-0.82103 l 0.35931,-0.14882 -0.24585,-0.30272 c -0.005,-0.016 -1.07793,-1.40102 0.38986,-4.77777 3.65901,-8.45217 8.54447,-14.99015 9.82243,-15.91902 0.41604,-0.29763 0.64152,-0.34389 0.74917,-0.34389 0.0727,0 0.11638,0.016 0.1542,0.0669 0.13092,0.1539 0.16438,0.53372 0.0873,0.92882 -0.0291,0.17442 -0.1542,0.70815 -0.32294,1.48823 -0.62552,2.88411 -1.92443,8.87812 -2.65832,13.00927 -0.45096,2.51974 -0.19493,4.37233 0.75499,5.50648 0.7288,0.87238 1.84747,1.31374 3.32544,1.31374 2.43764,0 4.77767,-1.53956 4.87514,-1.60113 l 0.30258,-0.21035 -0.27203,-0.24629 c -0.0145,-0.0204 -1.77561,-1.69351 -0.89755,-6.58417 0.58042,-3.26387 1.37469,-7.03579 1.95002,-9.78647 0.2924,-1.3856 0.51788,-2.47868 0.63571,-3.09451 l 0.0582,-0.29763 c 0.28803,-1.46257 0.82045,-4.182467 -0.50769,-5.799002 -0.67207,-0.821033 -1.73458,-1.236786 -3.16121,-1.236786" />
    <path
       inkscape:connector-curvature="0"
       id="path19143"
       style="fill:#e9212f;fill-opacity:1;fill-rule:nonzero;stroke:none;stroke-width:5.13186"
       d="m 325.74727,118.18639 c -0.73899,0 -1.11867,-1.28813 -1.11867,-2.56079 0,-1.43696 0.72881,-9.60684 4.22867,-13.79444 0.75499,-0.90832 1.62679,-1.37019 2.58646,-1.37019 2.19136,0 4.29035,2.36578 4.788,2.96107 -2.68392,5.47056 -6.4353,11.19772 -9.15516,13.96892 -0.50769,0.5234 -0.96446,0.79543 -1.32959,0.79543 m 15.56485,-22.143967 c -1.52918,0 -2.73003,0.405425 -3.57172,1.205947 -0.64153,-0.395097 -2.68902,-1.513907 -5.47055,-1.513907 -1.49849,0 -3.83342,0.333563 -6.4097,1.934708 -2.82255,1.760231 -5.24477,4.603279 -7.21531,8.467579 -4.44426,8.72415 -2.33509,15.07226 -1.24668,16.60669 0.96447,1.35477 2.36578,2.01682 4.29544,2.01682 2.6941,0 6.46614,-1.14951 12.01873,-9.88909 -0.15856,1.19053 -0.34913,2.95082 -0.34913,4.40827 0,4.79315 3.34596,5.31147 4.78291,5.31147 3.55645,0 4.79833,-1.64733 4.84444,-1.71404 l 0.14547,-0.21035 -0.17456,-0.16933 c -0.0145,-0.0262 -1.67305,-1.75509 -0.60079,-10.62807 1.01684,-8.46244 3.98748,-14.312761 4.01832,-14.369203 l 0.14547,-0.282212 -0.28221,-0.117831 c -0.10183,-0.04655 -2.49918,-1.057131 -4.92155,-1.057131" />
    <path
       inkscape:connector-curvature="0"
       id="path19147"
       style="fill:#e9212f;fill-opacity:1;fill-rule:nonzero;stroke:none;stroke-width:5.13186"
       d="m 368.93179,95.734522 c -3.92071,0 -8.56513,6.445618 -10.52549,9.458008 0.31276,-1.32407 0.74481,-3.22794 1.1143,-4.95737 0.28222,-1.324068 0.13093,-2.355523 -0.44077,-3.05858 -0.61534,-0.759499 -1.67305,-1.128992 -3.23307,-1.128992 -2.19136,0 -4.88037,0.949337 -4.9934,0.990505 l -0.39568,0.144015 0.27639,0.318143 c 0.0103,0.01026 0.83209,1.0212 0.30258,4.644319 -0.57024,3.92075 -3.03291,13.66615 -4.13615,17.56636 -0.43059,1.55495 -0.34331,2.76094 0.28221,3.58716 0.87718,1.15983 2.56595,1.29323 3.7668,1.29323 2.00138,0 4.03359,-0.7595 4.12088,-0.7851 l 0.33312,-0.13383 -0.19493,-0.30273 c -0.0102,-0.0102 -0.9601,-1.52928 0.14838,-4.38774 2.95086,-7.53869 6.27121,-11.91617 8.22648,-13.36849 0.47714,-0.35407 0.9441,-0.53882 1.38487,-0.53882 1.10266,0 1.7551,1.1546 1.76019,1.16493 l 0.18474,0.32847 0.27203,-0.2617 c 1.04157,-1.00069 2.86358,-3.21767 3.58715,-5.18831 0.43059,-1.159829 1.01102,-3.294645 0.16874,-4.500635 -0.41022,-0.590172 -1.08811,-0.882712 -2.0117,-0.882712" />
    <path
       inkscape:connector-curvature="0"
       id="path19151"
       style="fill:#e9212f;fill-opacity:1;fill-rule:nonzero;stroke:none;stroke-width:5.13186"
       d="m 391.39905,99.234443 c -1.09248,0.405425 -3.78222,0.636286 -7.37955,0.636286 -0.41023,0 -0.74481,-0.0051 -0.98047,-0.01026 0.2153,-0.923735 0.82627,-3.551243 1.519,-5.968358 0.46114,-1.58574 0.38986,-2.79173 -0.21093,-3.58716 -0.58479,-0.774919 -1.63698,-1.149504 -3.22274,-1.149504 -2.13492,0 -5.32173,1.041711 -5.45513,1.082879 l -0.45678,0.153907 0.34331,0.333563 c 1.27287,1.231695 -0.0145,7.179483 -0.62115,9.370794 -0.0291,0.11783 -3.06884,11.92129 -3.06884,17.57661 0,4.69564 2.53002,7.07683 7.51818,7.07683 2.34003,0 5.6553,-0.69797 7.9543,-2.65831 0.99502,-0.85187 1.4067,-2.00142 1.17976,-3.34083 -0.16438,-0.98018 -0.61097,-1.70891 -0.6357,-1.73457 l -0.17893,-0.29763 -0.25602,0.2361 c -0.0102,0.0102 -1.09248,0.96475 -3.10477,1.67811 -0.77536,0.27712 -1.41688,0.40542 -1.96545,0.40542 -0.70844,0 -1.25249,-0.21558 -1.75509,-0.70814 -1.19577,-1.15984 -0.42041,-5.37306 -0.16438,-6.75352 0.37967,-2.08354 1.29323,-6.09665 1.51899,-7.07684 0.3535,-0.005 1.11431,-0.0262 2.09375,-0.0262 0.74481,0 1.47798,0.0103 2.18104,0.0262 4.2646,0.10328 5.48087,-3.22794 5.53731,-4.988174 l 0.0145,-0.431027 z" />
  </g>
</svg>
