<?xml version="1.0" encoding="UTF-8" standalone="no"?>
<svg xmlns:inkscape="http://www.inkscape.org/namespaces/inkscape" xmlns:sodipodi="http://sodipodi.sourceforge.net/DTD/sodipodi-0.dtd" xmlns="http://www.w3.org/2000/svg" xmlns:svg="http://www.w3.org/2000/svg" xmlns:rdf="http://www.w3.org/1999/02/22-rdf-syntax-ns#" xmlns:cc="http://creativecommons.org/ns#" xmlns:dc="http://purl.org/dc/elements/1.1/" xmlns:ns3="&#38;#38;ns_ai;" version="1.0" width="857.04077" height="209.97498" id="svg2508" sodipodi:version="0.32" inkscape:version="1.3.2 (091e20e, 2023-11-25, custom)" sodipodi:docname="FamilyMart_logo.svg" inkscape:output_extension="org.inkscape.output.svg.inkscape" xml:space="preserve">
  <metadata id="metadata22"></metadata>
  <defs id="defs2510">
    <clipPath id="clipPath7642">
      <path d="M 415.3,483.34 H 540 v 54.85 H 415.3 Z" id="path7644"></path>
    </clipPath>
  </defs>
  <g id="g1" transform="scale(3.3478154)" style="stroke-width:0.298702">
    <g id="g3226" transform="translate(15.839494,11.58007)" style="stroke-width:0.298702">
      <g id="g4" style="stroke-width:0.298702">
        <path id="rect2454" style="opacity:1;fill:#ffffff;stroke-width:0.719648;stroke-linecap:round;stroke-linejoin:round" d="M -15.839494,-11.58007 H 240.16051 V 51.13987 H -15.839494 Z" sodipodi:nodetypes="ccccc"></path>
      </g>
      <g id="layer1" transform="matrix(1.3473684,0,0,1.3473684,-548.40516,-547.01218)" style="stroke-width:0.298702">
        <g id="g8699" transform="matrix(1.2894294,0,0,-1.2894294,-118.24651,480.6975)" style="stroke-width:0.298702">
          <path style="fill:#0994dd;fill-opacity:1;fill-rule:nonzero;stroke:none;stroke-width:0.298702" id="path8303" d="M 398.246,31.612 H 545.598 V 28.506 H 398.246 Z"></path>
          <path style="opacity:1;fill:#19ae48;fill-opacity:1;fill-rule:nonzero;stroke:none;stroke-width:0.298702" id="path8301" d="m 398.246,64.60724 h 147.352 v -9.699 H 398.246 Z"></path>
        </g>
      </g>
    </g>
    <switch id="switch2" transform="matrix(0.40231019,0,0,0.40231019,7.6613499,21.79243)" style="opacity:1;stroke-width:0.742469">
		
		<g ns3:extraneous="self" id="g2" style="stroke-width:0.742469">
			<g id="レイヤー_1" ns3:layer="yes" ns3:dimmedPercent="50" ns3:rgbTrio="#4F008000FFFF" style="stroke-width:0.742469">
				<path id="path758" ns3:knockout="Off" fill="#00a041" d="M 98.670754,34.914034 H 0 V 0 h 98.670754 z" style="stroke-width:0.742469" sodipodi:nodetypes="ccccc"></path>
				<path id="path760" ns3:knockout="Off" fill="#008cd6" d="M 98.670753,74.697213 H 0.04854774 V 38.110188 H 98.670753 Z" style="stroke-width:0.742469" sodipodi:nodetypes="ccccc"></path>
				<path id="path764" ns3:knockout="Off" fill="#008cd6" d="M 128.89645,1.5290985 V 74.42415 h 14.8342 V 42.551583 h 30.85556 V 28.468282 H 143.73065 V 15.594863 h 31.37954 V 1.5290985 Z" style="fill:#008cd6;fill-opacity:1;stroke-width:0.742469"></path>
				<path ns3:knockout="Off" fill="#008cd6" d="M 218.23577,63.970493 V 40.246311 c 0,-7.814199 -4.0453,-17.730476 -21.17755,-17.730476 -6.74149,0 -12.22257,1.503841 -15.92132,2.996337 v 12.924991 c 4.22891,-2.644616 8.91371,-4.051501 14.0245,-4.051501 4.62189,0 9.2376,1.579136 9.2376,7.007612 v 0.340376 c -2.27021,-0.800399 -5.1634,-1.342937 -8.16593,-1.342937 -11.6687,0 -20.26266,6.119541 -20.26266,18.105921 0,11.790406 9.64191,16.244169 17.36432,16.244169 4.82817,0 8.98281,-1.544068 11.68003,-3.72144 0.27128,1.515187 0.66322,2.772514 1.11808,3.405818 h 15.24161 c -1.82565,-1.478055 -3.13868,-4.448606 -3.13868,-10.454688 m -28.35638,-7.023084 c 0,-4.029842 3.4574,-6.743563 8.40213,-6.743563 2.51774,0 4.5404,0.565229 6.11954,1.412043 v 8.696081 c -1.39966,1.263517 -3.82047,2.743635 -7.35211,2.743635 -4.57755,0 -7.16956,-2.594075 -7.16956,-6.108196" id="path1" style="fill:#008cd6;fill-opacity:1;stroke-width:0.742469"></path>
				<path ns3:knockout="Off" fill="#008cd6" d="M 519.18457,63.970493 V 40.246311 c 0,-7.814199 -4.03294,-17.730476 -21.17033,-17.730476 -6.74769,0 -12.23393,1.503841 -15.93371,2.996337 v 12.924991 c 4.24748,-2.644616 8.93744,-4.051501 14.05545,-4.051501 4.60332,0 9.21489,1.579136 9.21489,7.007612 v 0.340376 c -2.2836,-0.800399 -5.17576,-1.342937 -8.16075,-1.342937 -11.67386,0 -20.24926,6.119541 -20.24926,18.105921 0,11.790406 9.62953,16.244169 17.34987,16.244169 4.83127,0 8.9787,-1.544068 11.6687,-3.72144 0.28262,1.515187 0.67972,2.772514 1.11292,3.405818 h 15.25915 c -1.82152,-1.478055 -3.14693,-4.448606 -3.14693,-10.454688 m -28.3502,-7.023084 c 0,-4.029842 3.45636,-6.743563 8.39594,-6.743563 2.52291,0 4.54659,0.565229 6.12056,1.412043 v 8.696081 c -1.41822,1.263517 -3.7926,2.743635 -7.36036,2.743635 -4.56309,0 -7.15614,-2.594075 -7.15614,-6.108196" id="path2" style="fill:#008cd6;fill-opacity:1;stroke-width:0.742469"></path>
				<path id="path784" ns3:knockout="Off" fill="#008cd6" d="m 279.75609,23.028461 c -6.01639,0 -10.41859,1.44505 -14.55053,5.836926 -2.91589,-3.66471 -7.5089,-5.836926 -13.05083,-5.836926 -4.55279,0 -8.80026,1.319214 -12.66713,4.696153 V 23.529742 H 226.53991 V 74.42415 h 13.92756 V 40.119444 c 1.67608,-2.06804 4.05047,-3.820459 7.33561,-3.820459 4.19487,0 6.57956,2.86947 6.57956,8.056588 V 74.42415 h 14.19367 V 39.756377 c 1.60801,-2.022657 3.94629,-3.457392 7.23143,-3.457392 4.52906,0 6.58575,3.209845 6.58575,8.056588 V 74.42415 h 14.19263 V 39.168455 c 0.001,-9.55321 -6.1185,-16.139994 -16.83003,-16.139994" style="fill:#008cd6;fill-opacity:1;stroke-width:0.742469"></path>
				<path id="path786" ns3:knockout="Off" fill="#008cd6" d="m 329.26631,74.417962 h 13.90486 V 1.5290985 h -13.90486 z" style="fill:#008cd6;fill-opacity:1;stroke-width:0.742469"></path>
				<path id="path790" ns3:knockout="Off" fill="#008cd6" d="M 437.14476,24.175424 418.72218,1.5290985 H 403.49192 V 74.42415 h 15.23026 V 24.175424 l 18.42258,24.386367 18.41639,-24.386367 V 74.42415 h 15.23541 V 1.5290985 h -15.23541 z" style="fill:#008cd6;fill-opacity:1;stroke-width:0.742469"></path>
				<path id="path792" ns3:knockout="Off" fill="#008cd6" d="m 305.77214,74.417962 h 13.92859 v -50.88822 h -13.92859 z" style="fill:#008cd6;fill-opacity:1;stroke-width:0.742469"></path>
				<path id="path804" ns3:knockout="Off" fill="#008cd6" d="m 312.73334,0.41101611 c -4.99012,0 -9.04678,4.03912419 -9.04678,9.04677179 0,4.9787671 4.05666,9.0251111 9.04678,9.0251111 4.99115,0 9.03027,-4.045313 9.03027,-9.0251111 0,-5.0076476 -4.03912,-9.04677179 -9.03027,-9.04677179" style="fill:#008cd6;fill-opacity:1;stroke-width:0.742469"></path>
				<path id="path808" ns3:knockout="Off" fill="#008cd6" d="m 540.20535,28.865387 v -5.335645 h -13.3221 v 50.88822 H 540.8108 V 42.447406 c 2.01234,-2.586854 5.28511,-4.908628 10.00292,-4.908628 3.64821,0 6.31139,1.423389 7.83277,2.535283 V 24.757157 c -1.7122,-1.227415 -4.47853,-1.854531 -6.76626,-1.854531 -3.9628,-0.001 -8.30826,1.507966 -11.67488,5.962761" style="fill:#008cd6;fill-opacity:1;stroke-width:0.742469"></path>
				<path id="path812" ns3:knockout="Off" fill="#008cd6" d="m 588.54178,61.423864 c -4.41973,0 -6.08963,-3.417165 -6.08963,-7.197398 V 36.858026 H 594.3096 V 23.529742 H 582.45215 V 4.3119271 l -13.73674,5.8431149 v 13.3747 h -7.49857 v 13.328284 h 7.49857 v 19.408632 c 0,10.561958 4.22273,18.72066 16.65262,18.72066 3.69979,0 6.9612,-0.564199 9.12826,-1.435766 V 59.482691 c -1.02835,1.162435 -2.95096,1.941173 -5.95451,1.941173" style="fill:#008cd6;fill-opacity:1;stroke-width:0.742469"></path>
				<path id="path816" ns3:knockout="Off" fill="#008cd6" d="m 359.98058,87.608034 h 15.65108 L 399.1083,23.529742 h -15.25914 l -9.66358,27.486879 -10.50626,-27.486879 h -15.89244 l 19.17242,46.146684 z" style="fill:#008cd6;fill-opacity:1;stroke-width:0.742469"></path>
			</g>
		</g>
	</switch>
  </g>
</svg>